<?xml version="1.0" encoding="utf-8"?>
<!-- Generator: Adobe Illustrator 18.1.1, SVG Export Plug-In . SVG Version: 6.00 Build 0)  -->
<svg version="1.1" id="Layer_1" xmlns="http://www.w3.org/2000/svg" xmlns:xlink="http://www.w3.org/1999/xlink" x="0px" y="0px"
	 viewBox="0 0 515 32" enable-background="new 0 0 515 32" xml:space="preserve">
<g>
	<g>
		<path fill="#0C2244" d="M16.2,28.3c-6.7,0-10.6-3.6-10.6-9.5V4.5h5.5v14.1c0,3.5,1.8,5.4,5.1,5.4c3.4,0,5.2-1.8,5.2-5.3V4.5H27
			v14.2C27,24.6,22.9,28.3,16.2,28.3"/>
		<path fill="#0C2244" d="M37.1,13.9h2c2.7,0,4.2-1,4.2-2.8c0-1.8-1.3-2.7-3.9-2.7h-2.2V13.9z M37.1,24h2.4c2.1,0,4.7-0.5,4.7-3.2
			c0-2.7-2.6-3.3-4.8-3.3h-2.3V24z M39.4,27.9h-7.7V4.5h7.8c5.7,0,8.9,2.2,8.9,6.2c0,2.1-1.1,3.7-3.2,4.7c2.8,1,4.2,2.9,4.2,5.5
			C49.5,25.5,45.9,27.9,39.4,27.9"/>
		<path fill="#0C2244" d="M64.9,28.3c-7.6,0-12.5-4.7-12.5-12.1C52.4,9,57.5,4.1,65,4.1c2.8,0,5.2,0.6,7.2,1.7l0.2,0.1l-0.8,4.8
			l-0.4-0.2c-2-1.3-3.9-2-6-2c-4.5,0-7.2,2.9-7.2,7.8c0,4.8,2.8,7.7,7.3,7.7c2.1,0,4.2-0.6,6.4-1.9l0.4-0.2l0.8,4.5l-0.2,0.1
			C70.4,27.6,67.7,28.3,64.9,28.3"/>
	</g>
	<g>
		<path fill="#0C2244" d="M96.2,28.3c-6.6,0-10.8-4.8-10.8-12c0-7.2,4.3-12.1,10.9-12.1c6.7,0,10.8,4.8,10.8,12
			C107.1,23.4,102.8,28.3,96.2,28.3z M96.2,8c-4,0-6.3,3.3-6.3,8.3c0,5.1,2.4,8.3,6.3,8.3c4,0,6.4-3.3,6.4-8.3
			C102.6,11.2,100.2,8,96.2,8z"/>
		<path fill="#0C2244" d="M119.3,7.3c-1.4,0-2.1,0.6-2.1,2v2.4h3.1l0.5,3.3h-3.6v12.9h-4V15h-2.4v-3.3h2.4V8.9
			c0-3.6,2.3-4.9,5.6-4.9c0.6,0,1.2,0.1,1.6,0.1l0.5,3.3C120.5,7.3,119.9,7.3,119.3,7.3z"/>
		<path fill="#0C2244" d="M131.9,7.3c-1.4,0-2.1,0.6-2.1,2v2.4h3.1l0.5,3.3h-3.6v12.9h-4V15h-2.4v-3.3h2.4V8.9
			c0-3.6,2.3-4.9,5.6-4.9c0.6,0,1.2,0.1,1.6,0.1l0.5,3.3C133.2,7.3,132.6,7.3,131.9,7.3z"/>
		<path fill="#0C2244" d="M139.5,9c-1.3,0-2.4-0.9-2.4-2.3c0-1.4,1.1-2.4,2.4-2.4c1.3,0,2.4,1,2.4,2.4C141.9,8,140.9,9,139.5,9z
			 M137.5,27.9V11.7h4v16.2H137.5z"/>
		<path fill="#0C2244" d="M154.3,28.2c-4.5,0-7.7-3-7.7-8.3c0-5.6,3.5-8.5,7.9-8.5c2.1,0,3.8,0.6,5.1,1.4l-0.6,3.6
			c-1.4-1-2.7-1.5-4.3-1.5c-2.3,0-4,1.7-4,4.9c0,3.4,1.8,5,4.3,5c1.4,0,2.7-0.4,4.2-1.5l0.5,3.4C158,27.8,156.3,28.2,154.3,28.2z"/>
		<path fill="#0C2244" d="M171.2,28.2c-4.5,0-7.9-2.6-7.9-8.4c0-5.3,3.2-8.5,7.4-8.5c4.9,0,7.1,3.7,7.1,8.3c0,0.3,0,0.7,0,1h-10.4
			c0.2,3.2,1.9,4.5,4.4,4.5c2.1,0,3.8-0.8,5.6-2l0.5,3.2C175.9,27.5,173.8,28.2,171.2,28.2z M167.3,18.1h6.5
			c-0.3-2.5-1.3-3.9-3.2-3.9C168.9,14.1,167.6,15.4,167.3,18.1z"/>
		<path fill="#0C2244" d="M197.9,28.2c-4.4,0-7.6-3.2-7.6-8.4s3.2-8.5,7.6-8.5c4.4,0,7.7,3.2,7.7,8.5S202.3,28.2,197.9,28.2z
			 M197.9,14.7c-2.4,0-3.7,2.1-3.7,5.1c0,3,1.3,5.1,3.7,5.1c2.5,0,3.8-2.1,3.8-5.1C201.6,16.8,200.3,14.7,197.9,14.7z"/>
		<path fill="#0C2244" d="M217.4,7.3c-1.4,0-2.1,0.6-2.1,2v2.4h3.1l0.5,3.3h-3.6v12.9h-4V15h-2.4v-3.3h2.4V8.9
			c0-3.6,2.3-4.9,5.6-4.9c0.6,0,1.2,0.1,1.6,0.1l0.5,3.3C218.7,7.3,218.1,7.3,217.4,7.3z"/>
		<path fill="#0C2244" d="M244.4,28.1l-6.1-9.1h-1.9v8.9h-4.4V4.7h7.2c5.2,0,8.3,2.5,8.3,7c0,3.4-1.8,5.5-4.7,6.5l6.2,9.1
			L244.4,28.1z M238.8,8.3h-2.5v7.4h2.3c2.8,0,4.5-1.3,4.5-3.7C243,9.6,241.5,8.3,238.8,8.3z"/>
		<path fill="#0C2244" d="M259.4,28.2c-4.5,0-7.9-2.6-7.9-8.4c0-5.3,3.2-8.5,7.4-8.5c4.9,0,7.1,3.7,7.1,8.3c0,0.3,0,0.7,0,1h-10.4
			c0.2,3.2,1.9,4.5,4.4,4.5c2.1,0,3.8-0.8,5.6-2l0.5,3.2C264.1,27.5,262,28.2,259.4,28.2z M255.5,18.1h6.5c-0.3-2.5-1.3-3.9-3.2-3.9
			C257.2,14.1,255.8,15.4,255.5,18.1z"/>
		<path fill="#0C2244" d="M276.2,28.2c-2.4,0-4.8-0.7-6.3-1.6l0.5-3.4c1.7,1.1,3.9,1.9,5.9,1.9c1.7,0,2.7-0.6,2.7-1.7
			c0-1.1-0.7-1.6-3.3-2.3c-3.9-1-5.6-2.1-5.6-5.1c0-2.8,2.2-4.8,6-4.8c2.1,0,4.1,0.4,5.7,1.1l-0.5,3.4c-1.6-0.9-3.5-1.5-5.1-1.5
			c-1.5,0-2.3,0.6-2.3,1.5c0,0.9,0.6,1.3,3,2c4.2,1.1,5.8,2.2,5.8,5.3C282.7,26.3,280.4,28.2,276.2,28.2z"/>
		<path fill="#0C2244" d="M294.5,28.2c-4.5,0-7.9-2.6-7.9-8.4c0-5.3,3.2-8.5,7.4-8.5c4.9,0,7.1,3.7,7.1,8.3c0,0.3,0,0.7,0,1h-10.4
			c0.2,3.2,1.9,4.5,4.4,4.5c2.1,0,3.8-0.8,5.6-2l0.5,3.2C299.2,27.5,297.1,28.2,294.5,28.2z M290.6,18.1h6.5
			c-0.3-2.5-1.3-3.9-3.2-3.9C292.3,14.1,290.9,15.4,290.6,18.1z"/>
		<path fill="#0C2244" d="M315.2,27.9l-0.3-2.1c-1.3,1.4-3,2.5-5.4,2.5c-2.8,0-4.6-1.7-4.6-4.5c0-3.9,3.2-5.6,9.8-6.3V17
			c0-1.7-1-2.4-2.8-2.4c-1.9,0-3.7,0.5-5.4,1.3l-0.5-3.2c1.9-0.7,3.9-1.3,6.4-1.3c4.2,0,6.3,1.5,6.3,5.4v11.1H315.2z M314.7,19.8
			c-4.7,0.6-5.8,1.9-5.8,3.5c0,1.2,0.7,1.9,2,1.9c1.4,0,2.7-0.6,3.8-1.7V19.8z"/>
		<path fill="#0C2244" d="M328.2,18.6v9.3h-4V11.7h3.4l0.5,3.3c1.1-1.9,2.7-3.5,5.2-3.6l0.6,4C331.4,15.5,329.4,16.9,328.2,18.6z"/>
		<path fill="#0C2244" d="M344.5,28.2c-4.5,0-7.7-3-7.7-8.3c0-5.6,3.5-8.5,7.9-8.5c2.1,0,3.8,0.6,5.1,1.4l-0.6,3.6
			c-1.4-1-2.7-1.5-4.3-1.5c-2.3,0-4,1.7-4,4.9c0,3.4,1.8,5,4.3,5c1.4,0,2.7-0.4,4.2-1.5l0.5,3.4C348.2,27.8,346.6,28.2,344.5,28.2z"
			/>
		<path fill="#0C2244" d="M364.5,27.9V17.3c0-1.4-0.6-2.4-2.1-2.4c-1.3,0-2.5,0.8-3.7,2v10.9h-4V4.3l4-0.6v10.1
			c1.3-1.2,3-2.4,5.2-2.4c3,0,4.6,1.8,4.6,4.9v11.7H364.5z"/>
		<path fill="#0C2244" d="M389.4,28.2c-2.8,0-5.2-0.6-7.3-1.6l0.7-4.1c1.9,1.1,4.4,2,6.7,2c2,0,3.5-1,3.5-2.8c0-1.7-0.8-2.4-4.2-3.9
			c-4.5-1.8-6.3-3.3-6.3-6.9c0-4.1,3.2-6.5,7.5-6.5c2.6,0,4.4,0.5,6.1,1.4l-0.7,4c-1.7-1.1-3.7-1.8-5.5-1.8c-2.2,0-3.2,1.1-3.2,2.5
			c0,1.5,0.7,2.2,4,3.5c4.8,1.9,6.5,3.6,6.5,7.2C397.2,25.8,393.9,28.2,389.4,28.2z"/>
		<path fill="#0C2244" d="M409.2,28.2c-4.5,0-7.9-2.6-7.9-8.4c0-5.3,3.2-8.5,7.4-8.5c4.9,0,7.1,3.7,7.1,8.3c0,0.3,0,0.7,0,1h-10.4
			c0.2,3.2,1.9,4.5,4.4,4.5c2.1,0,3.8-0.8,5.6-2l0.5,3.2C414,27.5,411.9,28.2,409.2,28.2z M405.3,18.1h6.5c-0.3-2.5-1.3-3.9-3.2-3.9
			C407,14.1,405.6,15.4,405.3,18.1z"/>
		<path fill="#0C2244" d="M424.5,18.6v9.3h-4V11.7h3.4l0.5,3.3c1.1-1.9,2.7-3.5,5.2-3.6l0.6,4C427.8,15.5,425.7,16.9,424.5,18.6z"/>
		<path fill="#0C2244" d="M442.5,28h-3.9l-5.7-16l4.2-0.5l3.6,11.5l3.5-11.3h4L442.5,28z"/>
		<path fill="#0C2244" d="M454.5,9C453.1,9,452,8,452,6.7c0-1.4,1.1-2.4,2.4-2.4c1.3,0,2.4,1,2.4,2.4C456.9,8,455.8,9,454.5,9z
			 M452.4,27.9V11.7h4v16.2H452.4z"/>
		<path fill="#0C2244" d="M469.2,28.2c-4.5,0-7.7-3-7.7-8.3c0-5.6,3.5-8.5,7.9-8.5c2.1,0,3.8,0.6,5.1,1.4l-0.6,3.6
			c-1.4-1-2.7-1.5-4.3-1.5c-2.3,0-4,1.7-4,4.9c0,3.4,1.8,5,4.3,5c1.4,0,2.7-0.4,4.2-1.5l0.5,3.4C472.9,27.8,471.2,28.2,469.2,28.2z"
			/>
		<path fill="#0C2244" d="M486.1,28.2c-4.5,0-7.9-2.6-7.9-8.4c0-5.3,3.2-8.5,7.4-8.5c4.9,0,7.1,3.7,7.1,8.3c0,0.3,0,0.7,0,1h-10.4
			c0.2,3.2,1.9,4.5,4.4,4.5c2.1,0,3.8-0.8,5.6-2l0.5,3.2C490.8,27.5,488.7,28.2,486.1,28.2z M482.2,18.1h6.5
			c-0.3-2.5-1.3-3.9-3.2-3.9C483.8,14.1,482.5,15.4,482.2,18.1z"/>
		<path fill="#0C2244" d="M502.8,28.2c-2.4,0-4.8-0.7-6.3-1.6l0.5-3.4c1.7,1.1,3.9,1.9,5.9,1.9c1.7,0,2.7-0.6,2.7-1.7
			c0-1.1-0.7-1.6-3.3-2.3c-3.9-1-5.6-2.1-5.6-5.1c0-2.8,2.2-4.8,6-4.8c2.1,0,4.1,0.4,5.7,1.1l-0.5,3.4c-1.6-0.9-3.5-1.5-5.1-1.5
			c-1.5,0-2.3,0.6-2.3,1.5c0,0.9,0.6,1.3,3,2c4.2,1.1,5.8,2.2,5.8,5.3C509.4,26.3,507.1,28.2,502.8,28.2z"/>
	</g>
</g>
</svg>
